<svg width="1276" height="468" viewBox="0 0 1276 468" fill="none" xmlns="http://www.w3.org/2000/svg" xmlns:xlink="http://www.w3.org/1999/xlink">
<path d="M1276,0L0,0L0,468L54,468C54,454.746 64.745,444 78,444C91.255,444 102,454.746 102,468L134,468C134,454.746 144.745,444 158,444C171.255,444 182,454.746 182,468L214,468C214,454.746 224.746,444 238,444C251.254,444 262,454.746 262,468L294,468C294,454.746 304.746,444 318,444C331.254,444 342,454.746 342,468L374,468C374,454.746 384.746,444 398,444C411.254,444 422,454.746 422,468L454,468C454,454.746 464.746,444 478,444C491.254,444 502,454.746 502,468L534,468C534,454.746 544.746,444 558,444C571.254,444 582,454.746 582,468L614,468C614,454.746 624.746,444 638,444C651.254,444 662,454.746 662,468L694,468C694,454.746 704.746,444 718,444C731.254,444 742,454.746 742,468L774,468C774,454.746 784.746,444 798,444C811.254,444 822,454.746 822,468L854,468C854,454.746 864.746,444 878,444C891.254,444 902,454.746 902,468L934,468C934,454.746 944.746,444 958,444C971.254,444 982,454.746 982,468L1014,468C1014,454.746 1024.746,444 1038,444C1051.254,444 1062,454.746 1062,468L1094,468C1094,454.746 1104.746,444 1118,444C1131.254,444 1142,454.746 1142,468L1174,468C1174,454.746 1184.746,444 1198,444C1211.254,444 1222,454.746 1222,468L1276,468L1276,0Z" clip-rule="evenodd" fill-rule="evenodd" fill="#F2C46F"/>
</svg>
