<svg width="36" height="44" viewBox="0 0 36 44" fill="none" xmlns="http://www.w3.org/2000/svg" xmlns:xlink="http://www.w3.org/1999/xlink">
<path d="M16.51,8L16.506,9.75L16.506,9.75L16.51,8ZM3.97,20L2.22,19.988L2.22,20L3.97,20ZM2.908,32.016L1.444,31.056L1.444,31.057L2.908,32.016ZM2.334,32.892L3.796,33.854L3.797,33.851L2.334,32.892ZM33.666,32.892L32.202,33.851L32.203,33.853L33.666,32.892ZM33.092,32.016L31.628,32.975L31.628,32.975L33.092,32.016ZM32.03,20.002L33.78,20.002L33.78,19.981L32.03,20.002ZM19.445,6.256L16.513,6.25L16.506,9.75L19.438,9.756L19.445,6.256ZM16.514,6.25C8.932,6.232 2.273,12.375 2.22,19.988L5.72,20.012C5.759,14.461 10.712,9.736 16.506,9.75L16.514,6.25ZM2.22,20L2.22,27.58L5.72,27.58L5.72,20L2.22,20ZM2.22,27.58C2.22,29.047 2.025,30.172 1.444,31.056L4.371,32.976C5.515,31.233 5.72,29.274 5.72,27.58L2.22,27.58ZM1.444,31.057L0.87,31.933L3.797,33.851L4.372,32.975L1.444,31.057ZM0.872,31.93C-0.743,34.383 0.961,37.75 3.97,37.75L3.97,34.25C3.917,34.25 3.888,34.238 3.867,34.224C3.841,34.207 3.809,34.176 3.783,34.128C3.758,34.081 3.748,34.031 3.749,33.989C3.75,33.953 3.759,33.909 3.796,33.854L0.872,31.93ZM3.97,37.75L32.03,37.75L32.03,34.25L3.97,34.25L3.97,37.75ZM32.03,37.75C35.042,37.75 36.737,34.381 35.129,31.932L32.203,33.853C32.239,33.908 32.249,33.952 32.25,33.988C32.251,34.031 32.241,34.081 32.215,34.129C32.19,34.177 32.158,34.208 32.132,34.225C32.111,34.238 32.083,34.25 32.03,34.25L32.03,37.75ZM35.13,31.933L34.556,31.057L31.628,32.975L32.202,33.851L35.13,31.933ZM34.556,31.058C33.976,30.172 33.78,29.043 33.78,27.578L30.28,27.578C30.28,29.273 30.488,31.233 31.628,32.975L34.556,31.058ZM33.78,27.578L33.78,20.002L30.28,20.002L30.28,27.578L33.78,27.578ZM33.78,19.981C33.687,12.364 27.013,6.274 19.446,6.256L19.438,9.756C25.247,9.77 30.213,14.472 30.28,20.023L33.78,19.981Z" fill="#333333"/>
<path d="M25.749,36C25.749,35.034 24.966,34.25 23.999,34.25C23.033,34.25 22.249,35.034 22.249,36L25.749,36ZM17.999,42L17.999,43.75L17.999,42ZM13.749,36C13.749,35.034 12.966,34.25 11.999,34.25C11.033,34.25 10.249,35.034 10.249,36L13.749,36ZM22.249,36C22.249,37.127 21.801,38.208 21.004,39.005L23.479,41.48C24.933,40.027 25.749,38.055 25.749,36L22.249,36ZM21.004,39.005C20.207,39.802 19.126,40.25 17.999,40.25L17.999,43.75C20.055,43.75 22.026,42.934 23.479,41.48L21.004,39.005ZM17.999,40.25C16.872,40.25 15.791,39.802 14.994,39.005L12.519,41.48C13.972,42.934 15.944,43.75 17.999,43.75L17.999,40.25ZM14.994,39.005C14.197,38.208 13.749,37.127 13.749,36L10.249,36C10.249,38.055 11.066,40.027 12.519,41.48L14.994,39.005Z" fill="#333333"/>
<path d="M18,2L18,0.25L18,2ZM22,8L22,9.75C22.967,9.75 23.75,8.967 23.75,8L22,8ZM14,8L12.25,8C12.25,8.967 13.034,9.75 14,9.75L14,8ZM18,3.75C18.597,3.75 19.169,3.987 19.591,4.409L22.066,1.934C20.988,0.856 19.525,0.25 18,0.25L18,3.75ZM19.591,4.409C20.013,4.831 20.25,5.403 20.25,6L23.75,6C23.75,4.475 23.144,3.012 22.066,1.934L19.591,4.409ZM20.25,6L20.25,8L23.75,8L23.75,6L20.25,6ZM22,6.25L14,6.25L14,9.75L22,9.75L22,6.25ZM15.75,8L15.75,6L12.25,6L12.25,8L15.75,8ZM15.75,6C15.75,5.403 15.987,4.831 16.409,4.409L13.934,1.934C12.856,3.012 12.25,4.475 12.25,6L15.75,6ZM16.409,4.409C16.831,3.987 17.403,3.75 18,3.75L18,0.25C16.475,0.25 15.012,0.856 13.934,1.934L16.409,4.409Z" fill="#333333"/>
</svg>
