<svg width="38" height="38" viewBox="0 0 38 38" fill="none" xmlns="http://www.w3.org/2000/svg" xmlns:xlink="http://www.w3.org/1999/xlink">
<path d="M33,18C33,26.284 26.284,33 18,33L18,36.333C28.125,36.333 36.333,28.125 36.333,18L33,18ZM18,33C9.716,33 3,26.284 3,18L-0.333,18C-0.333,28.125 7.875,36.333 18,36.333L18,33ZM3,18C3,9.716 9.716,3 18,3L18,-0.333C7.875,-0.333 -0.333,7.875 -0.333,18L3,18ZM18,3C26.284,3 33,9.716 33,18L36.333,18C36.333,7.875 28.125,-0.333 18,-0.333L18,3Z" fill="#333333"/>
<path d="M21.821,25.845C22.472,26.496 23.527,26.496 24.178,25.845C24.829,25.194 24.829,24.139 24.178,23.488L21.821,25.845ZM18.976,20.643L20.155,19.465L20.155,19.465L18.976,20.643ZM18,18.287L16.333,18.287L16.333,18.287L18,18.287ZM19.666,8C19.666,7.08 18.92,6.333 18,6.333C17.079,6.333 16.333,7.08 16.333,8L19.666,8ZM24.178,23.488L20.155,19.465L17.798,21.822L21.821,25.845L24.178,23.488ZM20.155,19.465C19.842,19.152 19.667,18.728 19.666,18.286L16.333,18.287C16.333,19.613 16.86,20.885 17.798,21.822L20.155,19.465ZM19.666,18.287L19.666,8L16.333,8L16.333,18.287L19.666,18.287Z" fill="#333333"/>
</svg>
