<svg width="36" height="36" viewBox="0 0 36 36" fill="none" xmlns="http://www.w3.org/2000/svg" xmlns:xlink="http://www.w3.org/1999/xlink">
<path d="M34.105,0L1.895,0C1.404,0.033 0.941,0.244 0.592,0.592C0.244,0.941 0.033,1.404 0,1.895L0,34.105C0.003,34.607 0.203,35.087 0.558,35.442C0.913,35.797 1.393,35.997 1.895,36L19.137,36L19.137,21.979L14.588,21.979L14.588,16.674L19.326,16.674L19.326,12.695C19.224,11.741 19.333,10.776 19.647,9.869C19.96,8.962 20.47,8.135 21.139,7.448C21.809,6.76 22.622,6.229 23.52,5.891C24.419,5.554 25.381,5.419 26.337,5.495C28.232,5.495 29.937,5.684 30.505,5.684L30.505,10.612L27.663,10.612C25.388,10.612 25.009,11.749 25.009,13.265L25.009,16.674L30.314,16.674L29.556,22.17L24.821,22.17L24.821,36L34.105,36C34.607,35.997 35.087,35.797 35.442,35.442C35.797,35.087 35.997,34.607 36,34.105L36,1.895C35.967,1.404 35.756,0.941 35.408,0.592C35.059,0.244 34.596,0.033 34.105,0L34.105,0Z" fill="#333333"/>
</svg>
