<svg width="64" height="64" viewBox="0 0 64 64" fill="none" xmlns="http://www.w3.org/2000/svg" xmlns:xlink="http://www.w3.org/1999/xlink">
<path d="M31.714,31.857C30.301,31.857 28.92,31.438 27.746,30.653C26.571,29.868 25.656,28.753 25.115,27.448C24.574,26.142 24.433,24.706 24.709,23.321C24.984,21.935 25.664,20.662 26.663,19.663C27.662,18.664 28.935,17.984 30.321,17.709C31.706,17.433 33.142,17.574 34.448,18.115C35.753,18.656 36.868,19.571 37.653,20.746C38.438,21.92 38.857,23.301 38.857,24.714C38.855,26.608 38.101,28.423 36.762,29.762C35.423,31.101 33.608,31.855 31.714,31.857ZM31.714,20.428C30.867,20.428 30.038,20.68 29.333,21.151C28.628,21.622 28.079,22.291 27.755,23.074C27.43,23.857 27.345,24.719 27.511,25.55C27.676,26.382 28.084,27.145 28.684,27.745C29.283,28.344 30.047,28.752 30.878,28.918C31.709,29.083 32.571,28.998 33.354,28.674C34.137,28.349 34.807,27.8 35.278,27.095C35.749,26.39 36,25.562 36,24.714C35.999,23.578 35.547,22.488 34.743,21.685C33.94,20.881 32.85,20.43 31.714,20.428Z" fill="#9DA8BE" stroke="#9DA8BE" stroke-width="0.25" stroke-miterlimit="3.999327"/>
<path d="M31.714,49L19.663,34.787C19.495,34.574 19.33,34.359 19.166,34.143C17.107,31.431 15.995,28.119 16,24.714C16,20.547 17.656,16.55 20.603,13.603C23.55,10.656 27.547,9 31.714,9C35.882,9 39.879,10.656 42.826,13.603C45.773,16.55 47.429,20.547 47.429,24.714C47.434,28.117 46.322,31.428 44.264,34.139L44.263,34.143C44.263,34.143 43.834,34.706 43.77,34.781L31.714,49ZM21.446,32.421C21.446,32.421 21.78,32.861 21.856,32.956L31.714,44.583L41.586,32.94C41.649,32.861 41.984,32.417 41.984,32.417C43.666,30.202 44.575,27.496 44.571,24.714C44.571,21.304 43.217,18.034 40.806,15.623C38.394,13.212 35.124,11.857 31.714,11.857C28.304,11.857 25.034,13.212 22.623,15.623C20.212,18.034 18.857,21.304 18.857,24.714C18.854,27.497 19.763,30.205 21.446,32.421Z" fill="#9DA8BE" stroke="#9DA8BE" stroke-width="0.5" stroke-miterlimit="3.999327"/>
</svg>
