<svg width="42" height="34" viewBox="0 0 42 34" fill="none" xmlns="http://www.w3.org/2000/svg" xmlns:xlink="http://www.w3.org/1999/xlink">
<path d="M42,4.025C41.426,4.883 40.776,5.684 40.052,6.426C39.327,7.168 38.541,7.846 37.693,8.459C37.707,8.65 37.717,8.837 37.724,9.021C37.731,9.205 37.734,9.392 37.734,9.583C37.734,11.299 37.55,12.995 37.181,14.671C36.812,16.346 36.278,17.967 35.581,19.534C34.569,21.808 33.305,23.842 31.787,25.633C30.27,27.424 28.55,28.939 26.629,30.179C24.709,31.419 22.613,32.365 20.344,33.019C18.074,33.673 15.695,34 13.207,34C10.855,34 8.562,33.676 6.327,33.029C4.091,32.382 1.982,31.419 0,30.138C0.67,30.22 1.354,30.261 2.051,30.261C4.006,30.261 5.896,29.948 7.721,29.321C9.546,28.694 11.225,27.782 12.756,26.583C11.84,26.569 10.958,26.416 10.11,26.123C9.263,25.83 8.487,25.422 7.783,24.897C7.079,24.373 6.463,23.75 5.937,23.028C5.411,22.306 5.004,21.509 4.717,20.637C4.99,20.678 5.26,20.712 5.527,20.739C5.793,20.766 6.063,20.78 6.337,20.78C7.103,20.78 7.854,20.678 8.593,20.474C7.581,20.269 6.655,19.908 5.814,19.391C4.973,18.873 4.245,18.243 3.63,17.501C3.015,16.758 2.536,15.92 2.194,14.987C1.853,14.054 1.682,13.077 1.682,12.055L1.682,11.953C2.885,12.634 4.19,12.995 5.599,13.036C4.997,12.627 4.46,12.161 3.989,11.636C3.517,11.112 3.117,10.543 2.789,9.93C2.461,9.317 2.208,8.67 2.03,7.989C1.853,7.308 1.764,6.607 1.764,5.885C1.764,5.122 1.859,4.376 2.051,3.647C2.242,2.918 2.536,2.227 2.933,1.573C4.026,2.922 5.243,4.131 6.583,5.2C7.923,6.269 9.348,7.185 10.859,7.948C12.37,8.711 13.952,9.314 15.606,9.757C17.261,10.199 18.956,10.462 20.692,10.543C20.61,10.23 20.552,9.906 20.518,9.573C20.484,9.239 20.467,8.909 20.467,8.582C20.467,7.397 20.692,6.283 21.144,5.241C21.595,4.199 22.21,3.29 22.989,2.513C23.769,1.737 24.681,1.124 25.727,0.674C26.773,0.225 27.891,0 29.08,0C30.283,0 31.428,0.235 32.515,0.705C33.602,1.175 34.556,1.846 35.376,2.718C36.347,2.527 37.287,2.258 38.196,1.91C39.105,1.563 39.983,1.137 40.831,0.633C40.517,1.628 40.035,2.534 39.385,3.351C38.736,4.168 37.96,4.843 37.058,5.374C38.78,5.169 40.428,4.72 42,4.025L42,4.025Z" fill="#333333"/>
</svg>
