<svg width="44" height="44" viewBox="0 0 44 44" fill="none" xmlns="http://www.w3.org/2000/svg" xmlns:xlink="http://www.w3.org/1999/xlink">
<path d="M0,12.909C0,5.805 5.805,0 12.909,0L31.091,0C38.195,0 44,5.805 44,12.909L44,31.091C44,38.195 38.195,44 31.091,44L12.909,44C5.805,44 0,38.195 0,31.091L0,12.909ZM12.909,4C8.014,4 4,8.014 4,12.909L4,31.091C4,35.986 8.014,40 12.909,40L31.091,40C35.986,40 40,35.986 40,31.091L40,12.909C40,8.014 35.986,4 31.091,4L12.909,4ZM22,28C25.314,28 28,25.314 28,22C28,18.686 25.314,16 22,16C18.686,16 16,18.686 16,22C16,25.314 18.686,28 22,28ZM22,32C27.523,32 32,27.523 32,22C32,16.477 27.523,12 22,12C16.477,12 12,16.477 12,22C12,27.523 16.477,32 22,32ZM32,12C33.105,12 34,11.105 34,10C34,8.895 33.105,8 32,8C30.895,8 30,8.895 30,10C30,11.105 30.895,12 32,12Z" clip-rule="evenodd" fill-rule="evenodd" fill="#333333"/>
</svg>
