<svg width="40" height="32" viewBox="0 0 40 32" fill="none" xmlns="http://www.w3.org/2000/svg" xmlns:xlink="http://www.w3.org/1999/xlink">
<path d="M40,12L40,4C40,2.939 39.579,1.922 38.828,1.172C38.078,0.421 37.061,0 36,0L4,0C2.939,0 1.922,0.421 1.172,1.172C0.421,1.922 0,2.939 0,4L0,12C1.061,12 2.078,12.421 2.828,13.172C3.579,13.922 4,14.939 4,16C4,17.061 3.579,18.078 2.828,18.828C2.078,19.579 1.061,20 0,20L0,28C0,30.2 1.8,32 4,32L36,32C38.2,32 40,30.2 40,28L40,20C37.8,20 36,18.2 36,16C36,13.8 37.8,12 40,12ZM36,9.08C33.62,10.46 32,13.06 32,16C32,18.94 33.62,21.54 36,22.92L36,28L4,28L4,22.92C6.38,21.54 8,18.94 8,16C8,13 6.4,10.46 4,9.08L4,4L36,4L36,9.08ZM18,22L22,22L22,26L18,26L18,22ZM18,14L22,14L22,18L18,18L18,14ZM18,6L22,6L22,10L18,10L18,6Z" fill="#333333"/>
</svg>
