<svg width="44" height="34" viewBox="0 0 44 34" fill="none" xmlns="http://www.w3.org/2000/svg" xmlns:xlink="http://www.w3.org/1999/xlink">
<path d="M2,14C0.895,14 0,14.895 0,16C0,17.105 0.895,18 2,18L2,14ZM41,16L42.414,17.414C43.195,16.633 43.195,15.367 42.414,14.586L41,16ZM27.414,-0.414C26.633,-1.195 25.367,-1.195 24.586,-0.414C23.805,0.367 23.805,1.633 24.586,2.414L27.414,-0.414ZM24.586,29.586C23.805,30.367 23.805,31.633 24.586,32.414C25.367,33.195 26.633,33.195 27.414,32.414L24.586,29.586ZM2,18L41,18L41,14L2,14L2,18ZM42.414,14.586L27.414,-0.414L24.586,2.414L39.586,17.414L42.414,14.586ZM39.586,14.586L24.586,29.586L27.414,32.414L42.414,17.414L39.586,14.586Z" transform="rotate(360 21.5 16)" fill="#1A2C50"/>
</svg>
