<svg width="20" height="36" viewBox="0 0 20 36" fill="none" xmlns="http://www.w3.org/2000/svg" xmlns:xlink="http://www.w3.org/1999/xlink">
<path d="M17.5,17.5L18.914,18.914C19.695,18.133 19.695,16.867 18.914,16.086L17.5,17.5ZM3.914,1.086C3.133,0.305 1.867,0.305 1.086,1.086C0.305,1.867 0.305,3.133 1.086,3.914L3.914,1.086ZM1.086,31.086C0.305,31.867 0.305,33.133 1.086,33.914C1.867,34.695 3.133,34.695 3.914,33.914L1.086,31.086ZM18.914,16.086L3.914,1.086L1.086,3.914L16.086,18.914L18.914,16.086ZM16.086,16.086L1.086,31.086L3.914,33.914L18.914,18.914L16.086,16.086Z" transform="rotate(180 10 17.5)" fill="#333333"/>
</svg>
