<svg width="94" height="88" viewBox="0 0 94 88" fill="none" xmlns="http://www.w3.org/2000/svg" xmlns:xlink="http://www.w3.org/1999/xlink">
<path d="M45.213,62.625C45.306,62.745 45.426,62.841 45.562,62.908C45.698,62.974 45.848,63.009 46,63.009C46.152,63.009 46.302,62.974 46.438,62.908C46.574,62.841 46.694,62.745 46.787,62.625L60.787,44.912C61.3,44.262 60.838,43.3 60,43.3L50.738,43.3L50.738,1C50.738,0.45 50.288,0 49.738,0L42.237,0C41.688,0 41.237,0.45 41.237,1L41.237,43.287L32,43.287C31.163,43.287 30.7,44.25 31.213,44.9L45.213,62.625ZM91.75,58.25L84.25,58.25C83.7,58.25 83.25,58.7 83.25,59.25L83.25,78.5L8.75,78.5L8.75,59.25C8.75,58.7 8.3,58.25 7.75,58.25L0.25,58.25C-0.3,58.25 -0.75,58.7 -0.75,59.25L-0.75,84C-0.75,86.213 1.037,88 3.25,88L88.75,88C90.963,88 92.75,86.213 92.75,84L92.75,59.25C92.75,58.7 92.3,58.25 91.75,58.25Z" transform="rotate(360 46 44)" fill="#333333"/>
</svg>
